<svg id="svg" version="1.1" xmlns="http://www.w3.org/2000/svg" xmlns:xlink="http://www.w3.org/1999/xlink" width="400" height="400" viewBox="0, 0, 400,400"><g id="svgg"><path id="path0" d="M111.600 100.555 L 111.600 114.711 112.969 114.968 C 113.721 115.109,117.853 115.384,122.151 115.578 C 126.449 115.772,130.153 116.047,130.383 116.189 C 130.670 116.367,130.800 141.783,130.800 197.945 L 130.800 279.443 129.648 281.261 C 127.248 285.044,125.099 285.791,114.200 286.634 C 112.660 286.753,110.995 286.933,110.500 287.033 L 109.600 287.215 109.600 300.808 L 109.600 314.400 157.400 314.400 L 205.200 314.400 205.200 300.046 L 205.200 285.691 194.300 285.396 C 188.305 285.233,180.970 284.988,178.000 284.850 L 172.600 284.600 172.600 259.600 L 172.600 234.600 191.800 234.355 C 208.632 234.140,216.500 233.771,221.600 232.959 C 224.204 232.545,230.990 231.189,232.600 230.762 C 236.174 229.813,239.840 228.697,240.495 228.359 C 240.877 228.162,241.374 228.000,241.599 228.000 C 241.824 228.000,242.862 227.622,243.904 227.160 C 244.947 226.698,246.160 226.180,246.600 226.008 C 248.675 225.198,254.829 222.082,256.800 220.843 C 260.327 218.627,262.185 217.417,262.400 217.199 C 262.510 217.087,263.590 216.257,264.800 215.354 C 275.082 207.680,283.100 196.065,286.996 183.200 C 290.526 171.546,291.603 151.113,289.212 141.200 C 289.026 140.430,288.473 138.090,287.983 136.000 C 285.963 127.384,281.324 117.270,277.410 112.947 C 277.185 112.698,276.406 111.762,275.679 110.867 C 272.431 106.865,266.635 102.002,261.196 98.713 C 257.819 96.672,250.817 93.200,250.076 93.200 C 249.808 93.200,249.187 92.992,248.695 92.738 C 246.816 91.766,246.393 91.600,245.800 91.600 C 245.464 91.600,244.877 91.438,244.495 91.239 C 243.353 90.646,235.080 88.617,232.200 88.224 C 231.320 88.104,229.250 87.822,227.600 87.599 C 220.310 86.611,210.807 86.438,162.700 86.420 L 111.600 86.400 111.600 100.555 M206.858 119.604 C 221.042 120.985,230.115 123.730,236.597 128.600 C 238.675 130.161,239.602 131.089,240.789 132.800 C 241.324 133.570,241.861 134.290,241.983 134.400 C 242.511 134.876,244.800 139.778,244.800 140.433 C 244.800 140.829,244.959 141.251,245.152 141.370 C 245.346 141.490,245.624 142.086,245.770 142.694 C 245.916 143.302,246.205 144.520,246.412 145.400 C 253.179 174.168,240.849 195.196,214.400 199.993 C 205.131 201.675,173.200 202.419,172.643 200.967 C 172.310 200.100,172.334 119.800,172.667 119.467 C 173.092 119.042,202.288 119.158,206.858 119.604 " stroke="none" fill="#fcfbfb" fill-rule="evenodd"></path><path id="path1" d="M30.091 0.291 C 29.151 0.377,28.486 0.616,28.614 0.823 C 28.742 1.031,28.297 1.200,27.624 1.200 C 26.951 1.200,26.400 1.380,26.400 1.600 C 26.400 1.820,25.860 2.000,25.200 2.000 C 24.540 2.000,24.000 2.180,24.000 2.400 C 24.000 2.620,23.640 2.800,23.200 2.800 C 22.760 2.800,22.400 2.980,22.400 3.200 C 22.400 3.420,22.040 3.600,21.600 3.600 C 21.160 3.600,20.800 3.780,20.800 4.000 C 20.800 4.220,20.480 4.400,20.088 4.400 C 19.697 4.400,19.117 4.760,18.800 5.200 C 18.483 5.640,17.943 6.000,17.600 6.000 C 17.257 6.000,16.717 6.360,16.400 6.800 C 16.083 7.240,15.578 7.600,15.277 7.600 C 14.788 7.600,14.166 8.109,11.083 11.038 C 9.246 12.783,7.600 14.798,7.600 15.301 C 7.600 15.588,7.240 16.083,6.800 16.400 C 6.360 16.717,6.000 17.257,6.000 17.600 C 6.000 17.943,5.640 18.483,5.200 18.800 C 4.760 19.117,4.400 19.697,4.400 20.088 C 4.400 20.480,4.220 20.800,4.000 20.800 C 3.780 20.800,3.600 21.160,3.600 21.600 C 3.600 22.040,3.420 22.400,3.200 22.400 C 2.980 22.400,2.800 22.760,2.800 23.200 C 2.800 23.640,2.620 24.000,2.400 24.000 C 2.180 24.000,2.000 24.540,2.000 25.200 C 2.000 25.860,1.820 26.400,1.600 26.400 C 1.380 26.400,1.200 26.951,1.200 27.624 C 1.200 28.297,1.036 28.746,0.836 28.622 C 0.636 28.498,0.356 29.881,0.215 31.699 C -0.315 38.491,0.161 371.320,0.700 371.500 C 0.975 371.592,1.200 372.091,1.200 372.610 C 1.200 373.128,1.380 373.664,1.600 373.800 C 1.820 373.936,2.000 374.487,2.000 375.024 C 2.000 375.561,2.180 376.000,2.400 376.000 C 2.620 376.000,2.800 376.360,2.800 376.800 C 2.800 377.240,2.980 377.600,3.200 377.600 C 3.420 377.600,3.600 377.960,3.600 378.400 C 3.600 378.840,3.780 379.200,4.000 379.200 C 4.220 379.200,4.400 379.520,4.400 379.912 C 4.400 380.303,4.760 380.883,5.200 381.200 C 5.640 381.517,6.000 382.057,6.000 382.400 C 6.000 382.743,6.360 383.283,6.800 383.600 C 7.240 383.917,7.600 384.422,7.600 384.723 C 7.600 385.212,8.109 385.834,11.038 388.917 C 12.783 390.754,14.798 392.400,15.301 392.400 C 15.588 392.400,16.083 392.760,16.400 393.200 C 16.717 393.640,17.257 394.000,17.600 394.000 C 17.943 394.000,18.483 394.360,18.800 394.800 C 19.117 395.240,19.697 395.600,20.088 395.600 C 20.480 395.600,20.800 395.780,20.800 396.000 C 20.800 396.220,21.160 396.400,21.600 396.400 C 22.040 396.400,22.400 396.580,22.400 396.800 C 22.400 397.020,22.760 397.200,23.200 397.200 C 23.640 397.200,24.000 397.380,24.000 397.600 C 24.000 397.820,24.540 398.000,25.200 398.000 C 25.860 398.000,26.400 398.180,26.400 398.400 C 26.400 398.620,26.951 398.800,27.624 398.800 C 28.297 398.800,28.746 398.964,28.622 399.164 C 28.498 399.364,29.881 399.644,31.699 399.785 C 38.491 400.315,371.320 399.839,371.500 399.300 C 371.592 399.025,372.091 398.800,372.610 398.800 C 373.128 398.800,373.664 398.620,373.800 398.400 C 373.936 398.180,374.487 398.000,375.024 398.000 C 375.561 398.000,376.000 397.820,376.000 397.600 C 376.000 397.380,376.360 397.200,376.800 397.200 C 377.240 397.200,377.600 397.020,377.600 396.800 C 377.600 396.580,377.960 396.400,378.400 396.400 C 378.840 396.400,379.200 396.220,379.200 396.000 C 379.200 395.780,379.520 395.600,379.912 395.600 C 380.303 395.600,380.883 395.240,381.200 394.800 C 381.517 394.360,382.057 394.000,382.400 394.000 C 382.743 394.000,383.283 393.640,383.600 393.200 C 383.917 392.760,384.412 392.400,384.699 392.400 C 385.793 392.400,392.400 385.793,392.400 384.699 C 392.400 384.412,392.760 383.917,393.200 383.600 C 393.640 383.283,394.000 382.743,394.000 382.400 C 394.000 382.057,394.360 381.517,394.800 381.200 C 395.240 380.883,395.600 380.303,395.600 379.912 C 395.600 379.520,395.780 379.200,396.000 379.200 C 396.220 379.200,396.400 378.840,396.400 378.400 C 396.400 377.960,396.580 377.600,396.800 377.600 C 397.020 377.600,397.200 377.240,397.200 376.800 C 397.200 376.360,397.380 376.000,397.600 376.000 C 397.820 376.000,398.000 375.561,398.000 375.024 C 398.000 374.487,398.180 373.936,398.400 373.800 C 398.620 373.664,398.800 373.128,398.800 372.610 C 398.800 372.091,399.025 371.592,399.300 371.500 C 399.839 371.320,400.315 38.491,399.785 31.699 C 399.644 29.881,399.364 28.498,399.164 28.622 C 398.964 28.746,398.800 28.297,398.800 27.624 C 398.800 26.951,398.620 26.400,398.400 26.400 C 398.180 26.400,398.000 25.860,398.000 25.200 C 398.000 24.540,397.820 24.000,397.600 24.000 C 397.380 24.000,397.200 23.640,397.200 23.200 C 397.200 22.760,397.020 22.400,396.800 22.400 C 396.580 22.400,396.400 22.040,396.400 21.600 C 396.400 21.160,396.220 20.800,396.000 20.800 C 395.780 20.800,395.600 20.480,395.600 20.088 C 395.600 19.697,395.240 19.117,394.800 18.800 C 394.360 18.483,394.000 17.943,394.000 17.600 C 394.000 17.257,393.640 16.717,393.200 16.400 C 392.760 16.083,392.400 15.588,392.400 15.301 C 392.400 14.798,390.754 12.783,388.917 11.038 C 385.834 8.109,385.212 7.600,384.723 7.600 C 384.422 7.600,383.917 7.240,383.600 6.800 C 383.283 6.360,382.743 6.000,382.400 6.000 C 382.057 6.000,381.517 5.640,381.200 5.200 C 380.883 4.760,380.303 4.400,379.912 4.400 C 379.520 4.400,379.200 4.220,379.200 4.000 C 379.200 3.780,378.840 3.600,378.400 3.600 C 377.960 3.600,377.600 3.420,377.600 3.200 C 377.600 2.980,377.240 2.800,376.800 2.800 C 376.360 2.800,376.000 2.620,376.000 2.400 C 376.000 2.180,375.561 2.000,375.024 2.000 C 374.487 2.000,373.936 1.820,373.800 1.600 C 373.664 1.380,373.128 1.200,372.610 1.200 C 372.091 1.200,371.592 0.975,371.500 0.700 C 371.343 0.229,35.206 -0.174,30.091 0.291 M225.000 86.350 C 226.980 86.590,229.680 86.895,231.000 87.029 C 232.320 87.162,233.571 87.435,233.780 87.635 C 233.989 87.836,234.934 88.000,235.880 88.000 C 236.826 88.000,237.600 88.180,237.600 88.400 C 237.600 88.620,238.320 88.800,239.200 88.800 C 240.080 88.800,240.800 88.980,240.800 89.200 C 240.800 89.420,241.520 89.600,242.400 89.600 C 243.280 89.600,244.000 89.780,244.000 90.000 C 244.000 90.220,244.439 90.400,244.976 90.400 C 245.513 90.400,246.064 90.580,246.200 90.800 C 246.336 91.020,246.887 91.200,247.424 91.200 C 247.961 91.200,248.400 91.380,248.400 91.600 C 248.400 91.820,248.940 92.000,249.600 92.000 C 250.260 92.000,250.800 92.180,250.800 92.400 C 250.800 92.620,251.027 92.800,251.304 92.800 C 251.982 92.800,258.814 96.127,261.800 97.911 C 267.318 101.208,274.257 107.177,276.784 110.800 C 277.321 111.570,277.988 112.341,278.267 112.513 C 278.546 112.685,279.071 113.450,279.433 114.213 C 279.795 114.976,280.251 115.600,280.446 115.600 C 280.641 115.600,280.800 115.848,280.800 116.151 C 280.800 116.454,281.060 116.918,281.377 117.181 C 281.881 117.599,285.039 123.772,286.043 126.300 C 286.239 126.795,286.565 127.605,286.767 128.100 C 286.968 128.595,287.224 129.360,287.334 129.800 C 287.445 130.240,287.916 131.860,288.382 133.400 C 291.888 145.008,292.455 161.488,289.846 176.000 C 289.014 180.632,286.775 188.097,285.953 188.980 C 285.759 189.189,285.594 189.639,285.587 189.980 C 285.581 190.321,285.020 191.680,284.342 193.000 C 283.664 194.320,282.905 195.804,282.655 196.297 C 282.405 196.790,282.065 197.195,281.900 197.197 C 281.735 197.199,281.600 197.390,281.600 197.622 C 281.600 198.006,278.576 202.728,278.028 203.200 C 277.900 203.310,277.264 204.120,276.613 205.000 C 274.188 208.283,264.371 217.600,263.338 217.600 C 263.079 217.600,262.807 217.745,262.733 217.923 C 262.570 218.320,258.971 220.800,258.559 220.800 C 258.396 220.800,257.979 221.044,257.631 221.342 C 256.681 222.158,250.783 225.200,250.151 225.200 C 249.848 225.200,249.600 225.380,249.600 225.600 C 249.600 225.820,249.240 226.000,248.800 226.000 C 248.360 226.000,248.000 226.180,248.000 226.400 C 248.000 226.620,247.651 226.800,247.224 226.800 C 246.797 226.800,246.336 226.980,246.200 227.200 C 246.064 227.420,245.513 227.600,244.976 227.600 C 244.439 227.600,244.000 227.780,244.000 228.000 C 244.000 228.220,243.640 228.400,243.200 228.400 C 242.760 228.400,242.400 228.580,242.400 228.800 C 242.400 229.020,241.871 229.200,241.224 229.200 C 240.577 229.200,239.936 229.380,239.800 229.600 C 239.664 229.820,239.124 230.000,238.600 230.000 C 238.076 230.000,237.536 230.180,237.400 230.400 C 237.264 230.620,236.634 230.800,236.000 230.800 C 235.366 230.800,234.736 230.980,234.600 231.200 C 234.464 231.420,233.744 231.600,233.000 231.600 C 232.256 231.600,231.548 231.761,231.426 231.958 C 231.305 232.155,230.529 232.419,229.703 232.546 C 228.876 232.673,227.030 232.968,225.600 233.202 C 215.968 234.779,210.096 235.137,189.100 235.429 L 173.200 235.650 173.200 259.795 L 173.200 283.940 183.500 284.176 C 189.165 284.305,196.590 284.544,200.000 284.706 L 206.200 285.000 206.305 300.100 L 206.410 315.200 157.805 315.200 L 109.200 315.200 109.200 300.847 L 109.200 286.493 110.300 286.200 C 110.905 286.038,113.290 285.758,115.600 285.577 C 123.272 284.976,125.738 284.298,127.816 282.220 C 130.149 279.888,130.000 285.644,130.000 197.584 L 130.000 116.865 124.900 116.621 C 122.095 116.486,117.795 116.281,115.345 116.164 L 110.891 115.953 110.645 114.727 C 110.326 113.131,110.325 87.061,110.644 86.230 C 110.946 85.443,218.463 85.556,225.000 86.350 M173.200 160.190 L 173.200 200.417 190.300 200.243 C 207.640 200.066,212.695 199.831,213.380 199.168 C 213.589 198.965,214.436 198.800,215.261 198.800 C 216.087 198.800,217.176 198.640,217.681 198.444 C 218.187 198.248,219.950 197.681,221.600 197.185 C 225.603 195.980,231.378 193.149,233.600 191.302 C 236.559 188.843,241.200 183.826,241.200 183.087 C 241.200 182.911,241.560 182.380,242.000 181.908 C 242.440 181.436,242.800 180.738,242.800 180.358 C 242.800 179.978,242.950 179.607,243.133 179.533 C 245.809 178.462,247.695 157.327,245.965 147.800 C 245.552 145.530,243.555 138.704,243.214 138.400 C 243.090 138.290,242.549 137.328,242.012 136.261 C 238.776 129.843,230.200 124.585,219.600 122.521 C 210.150 120.682,205.603 120.335,188.300 120.137 L 173.200 119.964 173.200 160.190 " stroke="none" fill="#fc8c04" fill-rule="evenodd"></path><path id="path2" d="M111.200 100.571 L 111.200 115.142 113.312 115.406 C 114.473 115.551,115.958 115.591,116.612 115.495 C 117.477 115.367,117.297 115.304,115.950 115.260 C 114.933 115.227,113.538 115.088,112.850 114.950 L 111.600 114.700 111.600 100.531 L 111.600 86.363 166.300 86.481 C 196.385 86.547,219.740 86.487,218.200 86.350 C 216.660 86.212,191.955 86.077,163.300 86.050 L 111.200 86.000 111.200 100.571 M224.600 87.223 C 225.480 87.405,226.740 87.544,227.400 87.531 C 228.444 87.511,228.392 87.465,227.000 87.177 C 226.120 86.995,224.860 86.856,224.200 86.869 C 223.156 86.889,223.208 86.935,224.600 87.223 M230.600 88.000 C 231.040 88.189,231.940 88.335,232.600 88.325 L 233.800 88.305 232.600 88.000 C 231.940 87.832,231.040 87.686,230.600 87.675 L 229.800 87.656 230.600 88.000 M235.400 88.800 C 235.840 88.989,236.560 89.144,237.000 89.144 L 237.800 89.144 237.000 88.800 C 236.560 88.611,235.840 88.456,235.400 88.456 L 234.600 88.456 235.400 88.800 M238.600 89.600 C 239.040 89.789,239.760 89.944,240.200 89.944 L 241.000 89.944 240.200 89.600 C 239.760 89.411,239.040 89.256,238.600 89.256 L 237.800 89.256 238.600 89.600 M242.000 90.400 C 242.330 90.613,242.870 90.788,243.200 90.788 C 243.733 90.788,243.733 90.745,243.200 90.400 C 242.870 90.187,242.330 90.012,242.000 90.012 C 241.467 90.012,241.467 90.055,242.000 90.400 M249.000 92.800 C 249.136 93.020,249.642 93.187,250.124 93.172 C 250.969 93.145,250.971 93.131,250.200 92.800 C 249.099 92.327,248.708 92.327,249.000 92.800 M252.800 94.194 C 252.800 94.289,253.966 94.907,255.391 95.567 C 258.734 97.114,264.057 100.348,266.588 102.370 C 267.681 103.244,268.656 103.878,268.754 103.779 C 268.853 103.681,268.858 103.548,268.767 103.485 C 268.675 103.421,267.610 102.633,266.400 101.733 C 262.114 98.544,252.800 93.381,252.800 94.194 M272.117 107.008 C 273.831 108.763,275.396 110.465,275.595 110.788 C 275.794 111.112,276.047 111.286,276.157 111.176 C 276.383 110.951,273.466 107.825,270.773 105.408 C 269.798 104.532,270.403 105.252,272.117 107.008 M276.807 112.195 C 277.133 112.632,277.737 113.352,278.149 113.795 L 278.899 114.600 278.486 113.796 C 278.260 113.353,277.656 112.633,277.144 112.196 C 276.217 111.403,276.216 111.403,276.807 112.195 M125.400 116.005 C 127.600 116.203,129.741 116.452,130.158 116.560 C 130.658 116.689,130.781 116.621,130.519 116.359 C 130.301 116.141,128.160 115.891,125.761 115.804 L 121.400 115.646 125.400 116.005 M172.584 119.700 C 172.480 119.975,172.441 138.380,172.499 160.600 L 172.604 201.000 172.702 160.305 L 172.800 119.609 188.700 119.500 L 204.600 119.391 188.687 119.295 C 176.255 119.221,172.733 119.309,172.584 119.700 M207.000 120.015 C 208.320 120.179,210.120 120.307,211.000 120.300 C 212.374 120.289,212.289 120.244,210.400 119.983 C 209.190 119.816,207.390 119.688,206.400 119.698 C 204.756 119.716,204.808 119.743,207.000 120.015 M283.082 122.189 C 283.673 123.393,284.223 124.311,284.305 124.229 C 284.484 124.049,282.467 120.000,282.198 120.000 C 282.094 120.000,282.492 120.985,283.082 122.189 M214.400 120.848 C 215.390 121.063,217.190 121.437,218.400 121.679 C 221.879 122.375,224.414 123.047,226.977 123.953 C 228.284 124.415,229.184 124.636,228.977 124.443 C 227.930 123.470,218.731 121.042,214.600 120.648 L 212.600 120.457 214.400 120.848 M236.517 128.984 C 237.722 129.966,239.377 131.541,240.196 132.484 C 241.464 133.946,241.546 133.993,240.751 132.800 C 239.665 131.172,238.797 130.292,236.508 128.500 C 234.001 126.538,234.009 126.941,236.517 128.984 M287.044 132.200 C 287.373 133.671,287.602 133.990,287.594 132.967 C 287.591 132.545,287.405 131.930,287.182 131.600 C 286.885 131.162,286.848 131.324,287.044 132.200 M287.801 135.001 C 287.947 135.660,288.231 136.722,288.433 137.360 C 288.635 137.998,288.803 138.988,288.806 139.560 C 288.809 140.132,288.984 140.870,289.195 141.200 C 289.663 141.934,289.347 139.585,288.556 136.439 C 287.983 134.161,287.346 132.949,287.801 135.001 M243.913 139.019 C 244.284 140.020,244.652 140.643,244.732 140.404 C 244.874 139.978,243.719 137.200,243.400 137.200 C 243.311 137.200,243.542 138.019,243.913 139.019 M245.239 142.427 C 245.744 144.056,246.603 148.377,247.143 152.000 L 247.531 154.600 247.344 151.800 C 247.076 147.784,245.914 142.323,245.137 141.427 C 244.960 141.222,245.005 141.672,245.239 142.427 M289.630 143.833 C 289.646 144.695,289.813 146.210,290.001 147.200 C 290.258 148.553,290.288 148.206,290.123 145.800 C 289.890 142.422,289.579 141.182,289.630 143.833 M290.572 158.200 C 290.572 163.260,290.629 165.275,290.699 162.677 C 290.769 160.080,290.768 155.940,290.698 153.477 C 290.628 151.015,290.571 153.140,290.572 158.200 M247.750 159.400 C 247.751 161.820,247.816 162.758,247.896 161.485 C 247.976 160.212,247.975 158.232,247.894 157.085 C 247.814 155.938,247.749 156.980,247.750 159.400 M247.033 167.500 C 246.582 171.500,244.957 177.684,244.012 179.000 C 243.608 179.561,243.189 180.800,243.403 180.800 C 243.653 180.800,245.070 177.624,245.748 175.545 C 246.809 172.290,248.005 165.200,247.492 165.200 C 247.382 165.200,247.175 166.235,247.033 167.500 M289.872 169.004 C 289.727 169.882,289.629 171.140,289.653 171.800 C 289.678 172.460,289.855 171.920,290.048 170.600 C 290.440 167.915,290.285 166.507,289.872 169.004 M288.440 177.713 C 288.155 179.081,287.848 180.560,287.759 181.000 L 287.596 181.800 287.959 181.000 C 288.468 179.880,289.368 175.634,289.144 175.411 C 289.042 175.309,288.726 176.345,288.440 177.713 M242.253 182.500 L 241.533 183.800 242.358 182.800 C 243.089 181.913,243.414 181.200,243.086 181.200 C 243.024 181.200,242.649 181.785,242.253 182.500 M286.357 185.137 C 285.783 186.822,284.915 189.190,284.428 190.400 C 283.941 191.610,283.709 192.420,283.912 192.200 C 284.633 191.418,287.741 182.996,287.525 182.411 C 287.456 182.226,286.931 183.452,286.357 185.137 M237.600 188.351 C 235.950 190.051,233.472 192.134,232.094 192.981 C 230.716 193.828,229.667 194.600,229.763 194.696 C 230.343 195.276,238.259 188.826,240.067 186.300 C 241.228 184.678,240.908 184.944,237.600 188.351 M223.800 197.214 C 223.360 197.412,221.952 197.866,220.670 198.224 C 219.389 198.581,218.411 198.944,218.497 199.030 C 218.706 199.239,223.749 197.785,224.669 197.249 C 225.552 196.736,224.920 196.710,223.800 197.214 M279.529 199.500 C 278.405 200.822,277.043 202.944,277.500 202.662 C 277.945 202.387,280.497 198.800,280.248 198.800 C 280.180 198.800,279.856 199.115,279.529 199.500 M215.000 199.610 C 214.466 199.847,214.798 199.886,216.000 199.727 C 216.990 199.596,217.875 199.424,217.967 199.344 C 218.314 199.043,215.764 199.272,215.000 199.610 M209.600 200.400 L 208.200 200.695 209.600 200.700 C 210.370 200.703,211.540 200.568,212.200 200.400 L 213.400 200.095 212.200 200.100 C 211.540 200.103,210.370 200.238,209.600 200.400 M187.200 201.200 L 172.600 201.415 186.600 201.468 C 194.300 201.497,202.130 201.386,204.000 201.222 L 207.400 200.924 204.600 200.954 C 203.060 200.971,195.230 201.082,187.200 201.200 M275.600 204.797 C 275.600 205.016,273.395 207.401,270.700 210.097 C 268.005 212.793,266.880 214.073,268.200 212.942 C 270.320 211.123,271.608 209.819,275.547 205.500 C 276.098 204.895,276.336 204.400,276.075 204.400 C 275.814 204.400,275.600 204.579,275.600 204.797 M263.841 216.027 C 262.983 216.672,262.400 217.200,262.546 217.200 C 263.000 217.200,265.590 215.416,265.595 215.100 C 265.602 214.699,265.622 214.688,263.841 216.027 M260.395 218.534 C 256.933 220.850,254.381 222.400,254.030 222.400 C 253.819 222.400,253.537 222.578,253.403 222.795 C 253.033 223.394,254.340 222.819,256.600 221.389 C 257.700 220.692,259.500 219.557,260.600 218.866 C 261.700 218.175,262.418 217.607,262.195 217.605 C 261.973 217.602,261.163 218.020,260.395 218.534 M251.293 223.780 C 250.039 224.472,249.662 224.901,250.612 224.555 C 251.598 224.195,253.114 223.186,252.589 223.239 C 252.375 223.261,251.792 223.504,251.293 223.780 M232.400 230.800 C 231.605 231.314,232.604 231.314,233.800 230.800 L 234.600 230.456 233.800 230.434 C 233.360 230.422,232.730 230.587,232.400 230.800 M228.800 231.600 C 227.996 231.857,227.957 231.923,228.600 231.932 C 229.040 231.938,229.760 231.789,230.200 231.600 C 231.219 231.162,230.168 231.162,228.800 231.600 M224.800 232.400 L 223.800 232.720 224.800 232.720 C 225.350 232.720,226.250 232.576,226.800 232.400 L 227.800 232.080 226.800 232.080 C 226.250 232.080,225.350 232.224,224.800 232.400 M219.600 233.200 L 217.800 233.480 219.400 233.500 C 220.280 233.511,221.450 233.376,222.000 233.200 C 223.263 232.795,222.202 232.795,219.600 233.200 M209.400 234.000 L 205.400 234.245 209.000 234.299 C 210.980 234.329,213.320 234.205,214.200 234.023 C 216.095 233.631,215.473 233.628,209.400 234.000 M172.497 259.476 C 172.444 273.158,172.535 284.433,172.700 284.531 C 172.865 284.629,176.690 284.800,181.200 284.910 L 189.400 285.111 181.103 284.700 L 172.806 284.290 172.700 259.445 L 172.594 234.600 172.497 259.476 M130.467 277.855 C 130.383 279.917,128.363 283.037,126.465 284.035 C 124.858 284.880,124.326 285.348,125.412 284.962 C 128.260 283.949,130.956 280.253,130.693 277.721 L 130.534 276.200 130.467 277.855 M121.800 285.600 C 120.722 285.874,120.702 285.906,121.600 285.913 C 122.150 285.917,123.050 285.776,123.600 285.600 C 124.944 285.169,123.492 285.169,121.800 285.600 M199.799 285.494 L 205.200 285.623 205.200 300.010 L 205.200 314.397 157.300 314.501 L 109.400 314.605 157.400 314.602 L 205.400 314.600 205.400 300.000 L 205.400 285.400 199.899 285.382 L 194.399 285.365 199.799 285.494 M113.800 286.400 C 111.880 286.663,111.864 286.676,113.400 286.708 C 114.280 286.726,115.810 286.597,116.800 286.420 C 119.170 285.999,116.841 285.983,113.800 286.400 M109.379 300.800 C 109.379 308.170,109.433 311.185,109.499 307.500 C 109.565 303.815,109.565 297.785,109.499 294.100 C 109.433 290.415,109.379 293.430,109.379 300.800 " stroke="none" fill="#fccc8c" fill-rule="evenodd"></path><path id="path3" d="M137.300 85.900 C 151.765 85.958,175.435 85.958,189.900 85.900 C 204.365 85.842,192.530 85.794,163.600 85.794 C 134.670 85.794,122.835 85.842,137.300 85.900 M223.305 86.687 C 223.914 86.779,224.814 86.777,225.305 86.682 C 225.797 86.587,225.300 86.511,224.200 86.514 C 223.100 86.517,222.697 86.595,223.305 86.687 M229.700 87.476 C 230.085 87.576,230.715 87.576,231.100 87.476 C 231.485 87.375,231.170 87.293,230.400 87.293 C 229.630 87.293,229.315 87.375,229.700 87.476 M273.000 107.200 C 274.083 108.300,275.060 109.200,275.170 109.200 C 275.280 109.200,274.483 108.300,273.400 107.200 C 272.317 106.100,271.340 105.200,271.230 105.200 C 271.120 105.200,271.917 106.100,273.000 107.200 M114.291 115.889 C 115.001 115.977,116.261 115.979,117.091 115.892 C 117.921 115.805,117.340 115.733,115.800 115.731 C 114.260 115.729,113.581 115.800,114.291 115.889 M127.905 116.683 C 128.402 116.779,129.122 116.775,129.505 116.675 C 129.887 116.575,129.480 116.496,128.600 116.501 C 127.720 116.505,127.407 116.587,127.905 116.683 M200.905 119.887 C 201.514 119.979,202.414 119.977,202.905 119.882 C 203.397 119.787,202.900 119.711,201.800 119.714 C 200.700 119.717,200.297 119.795,200.905 119.887 M290.920 154.800 C 290.920 156.010,290.995 156.505,291.087 155.900 C 291.178 155.295,291.178 154.305,291.087 153.700 C 290.995 153.095,290.920 153.590,290.920 154.800 M247.314 160.200 C 247.317 161.300,247.395 161.703,247.487 161.095 C 247.579 160.486,247.577 159.586,247.482 159.095 C 247.387 158.603,247.311 159.100,247.314 160.200 M290.920 161.600 C 290.920 162.810,290.995 163.305,291.087 162.700 C 291.178 162.095,291.178 161.105,291.087 160.500 C 290.995 159.895,290.920 160.390,290.920 161.600 M246.901 164.600 C 246.905 165.480,246.987 165.793,247.083 165.295 C 247.179 164.798,247.175 164.078,247.075 163.695 C 246.975 163.313,246.896 163.720,246.901 164.600 M203.091 200.689 C 203.801 200.777,205.061 200.779,205.891 200.692 C 206.721 200.605,206.140 200.533,204.600 200.531 C 203.060 200.529,202.381 200.600,203.091 200.689 M268.975 212.500 L 267.800 213.800 269.100 212.625 C 269.815 211.979,270.400 211.394,270.400 211.325 C 270.400 211.016,270.070 211.288,268.975 212.500 M218.705 233.883 C 219.202 233.979,219.922 233.975,220.305 233.875 C 220.687 233.775,220.280 233.696,219.400 233.701 C 218.520 233.705,218.207 233.787,218.705 233.883 M207.300 234.694 C 208.345 234.776,210.055 234.776,211.100 234.694 C 212.145 234.612,211.290 234.544,209.200 234.544 C 207.110 234.544,206.255 234.612,207.300 234.694 M174.700 284.295 C 175.855 284.376,177.745 284.376,178.900 284.295 C 180.055 284.214,179.110 284.148,176.800 284.148 C 174.490 284.148,173.545 284.214,174.700 284.295 M186.500 284.687 C 187.105 284.778,188.095 284.778,188.700 284.687 C 189.305 284.595,188.810 284.520,187.600 284.520 C 186.390 284.520,185.895 284.595,186.500 284.687 M196.882 285.096 C 198.358 285.173,200.878 285.173,202.482 285.097 C 204.087 285.021,202.880 284.958,199.800 284.958 C 196.720 284.957,195.407 285.019,196.882 285.096 M116.505 285.887 C 117.114 285.979,118.014 285.977,118.505 285.882 C 118.997 285.787,118.500 285.711,117.400 285.714 C 116.300 285.717,115.897 285.795,116.505 285.887 M109.542 314.902 C 109.708 315.068,131.344 315.158,157.622 315.102 L 205.400 315.000 157.320 314.800 C 130.876 314.690,109.376 314.736,109.542 314.902 " stroke="none" fill="#fca43c" fill-rule="evenodd"></path><path id="path4" d="M110.981 100.400 C 110.981 108.430,111.034 111.715,111.099 107.700 C 111.165 103.685,111.165 97.115,111.099 93.100 C 111.034 89.085,110.981 92.370,110.981 100.400 M216.900 86.287 C 217.505 86.378,218.495 86.378,219.100 86.287 C 219.705 86.195,219.210 86.120,218.000 86.120 C 216.790 86.120,216.295 86.195,216.900 86.287 M270.800 105.400 C 271.546 106.170,272.247 106.800,272.357 106.800 C 272.467 106.800,271.946 106.170,271.200 105.400 C 270.454 104.630,269.753 104.000,269.643 104.000 C 269.533 104.000,270.054 104.630,270.800 105.400 M119.100 115.882 C 119.595 115.978,120.405 115.978,120.900 115.882 C 121.395 115.787,120.990 115.709,120.000 115.709 C 119.010 115.709,118.605 115.787,119.100 115.882 M124.100 116.287 C 124.705 116.378,125.695 116.378,126.300 116.287 C 126.905 116.195,126.410 116.120,125.200 116.120 C 123.990 116.120,123.495 116.195,124.100 116.287 M130.400 196.520 L 130.600 276.600 130.701 196.821 C 130.757 152.943,130.667 116.907,130.501 116.741 C 130.335 116.575,130.290 152.476,130.400 196.520 M206.900 120.276 C 207.285 120.376,207.915 120.376,208.300 120.276 C 208.685 120.175,208.370 120.093,207.600 120.093 C 206.830 120.093,206.515 120.175,206.900 120.276 M247.320 156.400 C 247.320 157.610,247.395 158.105,247.487 157.500 C 247.578 156.895,247.578 155.905,247.487 155.300 C 247.395 154.695,247.320 155.190,247.320 156.400 M290.901 158.200 C 290.905 159.080,290.987 159.393,291.083 158.895 C 291.179 158.398,291.175 157.678,291.075 157.295 C 290.975 156.913,290.896 157.320,290.901 158.200 M247.309 163.600 C 247.309 164.590,247.387 164.995,247.482 164.500 C 247.578 164.005,247.578 163.195,247.482 162.700 C 247.387 162.205,247.309 162.610,247.309 163.600 M237.775 188.100 L 236.600 189.400 237.900 188.225 C 238.615 187.579,239.200 186.994,239.200 186.925 C 239.200 186.616,238.870 186.888,237.775 188.100 M179.900 201.099 C 183.915 201.165,190.485 201.165,194.500 201.099 C 198.515 201.034,195.230 200.981,187.200 200.981 C 179.170 200.981,175.885 201.034,179.900 201.099 M271.375 210.100 L 270.200 211.400 271.500 210.225 C 272.712 209.130,272.984 208.800,272.675 208.800 C 272.606 208.800,272.021 209.385,271.375 210.100 M216.100 233.876 C 216.485 233.976,217.115 233.976,217.500 233.876 C 217.885 233.775,217.570 233.693,216.800 233.693 C 216.030 233.693,215.715 233.775,216.100 233.876 M180.900 234.700 C 185.465 234.764,192.935 234.764,197.500 234.700 C 202.065 234.635,198.330 234.583,189.200 234.583 C 180.070 234.583,176.335 234.635,180.900 234.700 M182.307 284.690 C 183.026 284.779,184.106 284.777,184.707 284.686 C 185.308 284.595,184.720 284.522,183.400 284.524 C 182.080 284.526,181.588 284.601,182.307 284.690 M190.291 285.089 C 191.001 285.177,192.261 285.179,193.091 285.092 C 193.921 285.005,193.340 284.933,191.800 284.931 C 190.260 284.929,189.581 285.000,190.291 285.089 M205.600 300.280 C 205.490 308.245,205.537 314.623,205.705 314.455 C 205.873 314.287,205.963 307.771,205.905 299.975 L 205.799 285.800 205.600 300.280 " stroke="none" fill="#fcb464" fill-rule="evenodd"></path><path id="path5" d="M217.107 85.890 C 217.826 85.979,218.906 85.977,219.507 85.886 C 220.108 85.795,219.520 85.722,218.200 85.724 C 216.880 85.726,216.388 85.801,217.107 85.890 M111.141 115.701 C 111.343 115.903,111.933 116.001,112.454 115.919 C 113.255 115.793,113.198 115.737,112.087 115.552 C 111.293 115.421,110.919 115.479,111.141 115.701 M123.907 116.690 C 124.626 116.779,125.706 116.777,126.307 116.686 C 126.908 116.595,126.320 116.522,125.000 116.524 C 123.680 116.526,123.188 116.601,123.907 116.690 M179.674 119.899 C 183.345 119.965,189.465 119.965,193.274 119.899 C 197.083 119.834,194.080 119.780,186.600 119.780 C 179.120 119.779,176.003 119.833,179.674 119.899 M237.800 130.800 C 238.659 131.680,239.452 132.400,239.562 132.400 C 239.672 132.400,239.059 131.680,238.200 130.800 C 237.341 129.920,236.548 129.200,236.438 129.200 C 236.328 129.200,236.941 129.920,237.800 130.800 M291.293 156.000 C 291.293 156.770,291.375 157.085,291.476 156.700 C 291.576 156.315,291.576 155.685,291.476 155.300 C 291.375 154.915,291.293 155.230,291.293 156.000 M246.909 157.200 C 246.909 158.190,246.987 158.595,247.082 158.100 C 247.178 157.605,247.178 156.795,247.082 156.300 C 246.987 155.805,246.909 156.210,246.909 157.200 M291.293 160.400 C 291.293 161.170,291.375 161.485,291.476 161.100 C 291.576 160.715,291.576 160.085,291.476 159.700 C 291.375 159.315,291.293 159.630,291.293 160.400 M210.900 199.876 C 211.285 199.976,211.915 199.976,212.300 199.876 C 212.685 199.775,212.370 199.693,211.600 199.693 C 210.830 199.693,210.515 199.775,210.900 199.876 M180.300 200.699 C 184.315 200.765,190.885 200.765,194.900 200.699 C 198.915 200.634,195.630 200.581,187.600 200.581 C 179.570 200.581,176.285 200.634,180.300 200.699 M213.300 234.676 C 213.685 234.776,214.315 234.776,214.700 234.676 C 215.085 234.575,214.770 234.493,214.000 234.493 C 213.230 234.493,212.915 234.575,213.300 234.676 M173.061 235.100 C 172.892 235.373,184.716 235.367,198.400 235.086 C 201.370 235.025,196.926 234.936,188.524 234.888 C 180.122 234.839,173.164 234.935,173.061 235.100 M181.900 284.289 C 182.615 284.378,183.785 284.378,184.500 284.289 C 185.215 284.201,184.630 284.128,183.200 284.128 C 181.770 284.128,181.185 284.201,181.900 284.289 M190.305 284.683 C 190.802 284.779,191.522 284.775,191.905 284.675 C 192.287 284.575,191.880 284.496,191.000 284.501 C 190.120 284.505,189.807 284.587,190.305 284.683 M113.700 285.876 C 114.085 285.976,114.715 285.976,115.100 285.876 C 115.485 285.775,115.170 285.693,114.400 285.693 C 113.630 285.693,113.315 285.775,113.700 285.876 M206.181 300.400 C 206.181 308.430,206.234 311.715,206.299 307.700 C 206.365 303.685,206.365 297.115,206.299 293.100 C 206.234 289.085,206.181 292.370,206.181 300.400 " stroke="none" fill="#fc9c1c" fill-rule="evenodd"></path><path id="path6" d="M130.196 197.000 C 130.196 241.220,130.243 259.369,130.300 237.332 C 130.357 215.294,130.357 179.114,130.300 156.932 C 130.243 134.749,130.196 152.780,130.196 197.000 M246.901 160.200 C 246.905 161.080,246.987 161.393,247.083 160.895 C 247.179 160.398,247.175 159.678,247.075 159.295 C 246.975 158.913,246.896 159.320,246.901 160.200 M186.300 284.282 C 186.795 284.378,187.605 284.378,188.100 284.282 C 188.595 284.187,188.190 284.109,187.200 284.109 C 186.210 284.109,185.805 284.187,186.300 284.282 " stroke="none" fill="#fc980c" fill-rule="evenodd"></path><path id="path7" d="M110.580 100.400 C 110.580 108.210,110.634 111.405,110.699 107.500 C 110.765 103.595,110.765 97.205,110.699 93.300 C 110.634 89.395,110.580 92.590,110.580 100.400 M172.992 160.200 C 172.992 182.420,173.041 191.569,173.100 180.530 C 173.159 169.492,173.159 151.312,173.100 140.130 C 173.041 128.949,172.992 137.980,172.992 160.200 M290.920 150.000 C 290.920 151.210,290.995 151.705,291.087 151.100 C 291.178 150.495,291.178 149.505,291.087 148.900 C 290.995 148.295,290.920 148.790,290.920 150.000 M246.501 153.800 C 246.505 154.680,246.587 154.993,246.683 154.495 C 246.779 153.998,246.775 153.278,246.675 152.895 C 246.575 152.513,246.496 152.920,246.501 153.800 M246.514 165.400 C 246.517 166.500,246.595 166.903,246.687 166.295 C 246.779 165.686,246.777 164.786,246.682 164.295 C 246.587 163.803,246.511 164.300,246.514 165.400 M290.914 166.200 C 290.917 167.300,290.995 167.703,291.087 167.095 C 291.179 166.486,291.177 165.586,291.082 165.095 C 290.987 164.603,290.911 165.100,290.914 166.200 M172.984 235.700 C 172.879 235.975,172.841 247.000,172.899 260.200 L 173.006 284.200 173.103 259.905 L 173.200 235.610 188.300 235.500 L 203.400 235.390 188.287 235.295 C 176.495 235.221,173.133 235.310,172.984 235.700 M189.705 284.287 C 190.314 284.379,191.214 284.377,191.705 284.282 C 192.197 284.187,191.700 284.111,190.600 284.114 C 189.500 284.117,189.097 284.195,189.705 284.287 " stroke="none" fill="#fc8c10" fill-rule="evenodd"></path></g></svg>