<?xml version="1.0" standalone="no"?>
<!DOCTYPE svg PUBLIC "-//W3C//DTD SVG 20010904//EN"
 "http://www.w3.org/TR/2001/REC-SVG-20010904/DTD/svg10.dtd">
<svg version="1.0" xmlns="http://www.w3.org/2000/svg"
 width="700.000000pt" height="700.000000pt" viewBox="0 0 700.000000 700.000000"
 preserveAspectRatio="xMidYMid meet">
<metadata>
Created by potrace 1.14, written by Peter Selinger 2001-2017
</metadata>
<g transform="translate(0.000000,700.000000) scale(0.100000,-0.100000)"
fill="#000000" stroke="none">
<path d="M815 6472 c-192 -290 -352 -529 -355 -532 -3 -3 -107 -159 -233 -348
l-227 -342 580 -870 c319 -478 580 -874 580 -880 0 -8 -200 -316 -279 -430
-10 -14 -212 -316 -450 -672 l-431 -648 582 -875 583 -874 876 -1 876 0 583
875 583 875 876 0 876 0 90 138 c50 75 94 142 98 147 4 6 226 337 493 738
l484 727 -302 453 c-167 248 -307 460 -313 469 -5 10 -131 200 -280 423 l-270
404 -876 1 -876 0 -583 875 -583 875 -876 0 -876 -1 -350 -527z"/>
</g>
</svg>
