<svg width="492" height="107" xmlns="http://www.w3.org/2000/svg" class="iconLeft">
 <g id="Layer_1">
  <title>Layer 1</title>
  <!---->
  <!---->
  <!---->
  <!---->
  <!---->
  <g id="svg_6">
   <g transform="matrix(1.5 0 0 1.5 -3 -3)" id="svg_2">
    <g>
     <path fill="url(#svg_4)" d="m8.52655,52.90468l10,-15l15,0l10,15l-10,15l-15,0l-10,-15zm10,-15l-10,-15l10,-15l15,0l10,15l-10,15l-15,0z" class="st0"/>
     <path fill="url(#svg_3)" d="m43.52655,22.90468l15,0l10,15l-10,15l-15,0l-10,-15l10,-15z" class="st1"/>
    </g>
   </g>
   <path d="m126.00815,81.63614l9.91394,0l0,-20.13769l6.97074,0c12.28916,0 17.71084,-4.90534 17.71084,-16.21343l0,-2.53012c0,-11.463 -6.04131,-16.16179 -18.07229,-16.16179l-16.52324,0l0,55.04303zm9.91394,-45.95525l6.45439,0c5.67986,0 8.20998,1.49742 8.20998,7.7969l0,1.44578c0,5.78313 -1.70396,7.38382 -7.7969,7.38382l-6.86747,0l0,-16.62651zm52.56454,45.95525l8.62306,0l0,-29.32874c0,-11.20482 -6.29948,-14.97418 -15.54217,-14.97418c-10.22375,0 -15.54217,4.28571 -15.54217,14.97418l8.72633,0c0,-5.06024 2.32358,-6.91911 6.71256,-6.91911c4.28571,0 6.35112,2.16867 6.35112,7.12565l0,4.44062c-2.01377,-0.25818 -4.38898,-0.46472 -6.24785,-0.46472c-11.87608,0 -16.88468,4.90534 -16.88468,13.6833c0,8.00344 5.16351,12.34079 12.54733,12.34079c4.80207,0 8.57143,-1.49742 10.89501,-4.18244l0.36145,3.30465zm-0.67126,-14.81928c0,4.95697 -3.51119,7.69363 -7.48709,7.69363c-3.9759,0 -5.98967,-1.80723 -5.98967,-5.16351c0,-3.9759 2.16867,-6.04131 8.00344,-6.04131c1.39415,0 3.9759,0.15491 5.47332,0.41308l0,3.09811zm32.7883,6.86747c-4.07917,0 -5.57659,-1.54905 -5.57659,-7.07401l0,-17.86575l8.6747,0l0,-8.41652l-8.6747,0l0,-10.06885l-9.96558,0l0,36.09294c0,10.89501 3.14974,16.16179 13.21859,16.16179c2.22031,0 4.49225,-0.25818 5.42169,-0.51635l0,-8.6747c-0.8778,0.25818 -2.01377,0.36145 -3.09811,0.36145zm10.84337,-35.47332l0,43.42513l9.75904,0l0,-24.62995c0,-7.02238 3.9759,-9.5525 8.6747,-9.5525c1.08434,0 2.0654,0.10327 2.9432,0.20654l0,-10.01721c-0.56799,-0.10327 -1.29088,-0.15491 -2.01377,-0.15491c-4.49225,0 -8.26162,1.96213 -10.32702,4.64716l-0.61962,-3.92427l-8.41652,0zm37.07401,0l-9.75904,0l0,43.42513l9.75904,0l0,-43.42513zm0,-15.69707l-9.75904,0l0,9.34596l9.75904,0l0,-9.34596zm31.65232,43.68331l0,0.77453c0,4.80207 -1.96213,7.02238 -6.91911,7.02238c-5.06024,0 -6.97074,-2.47849 -6.97074,-8.46816l0,-11.35972c0,-6.04131 2.01377,-8.20998 7.02238,-8.20998c4.8537,0 6.71256,2.0654 6.71256,6.7642l0,0.82616l9.50086,0l0,-0.8778c0,-10.27539 -5.16351,-15.33563 -16.36833,-15.33563c-11.10155,0 -16.62651,5.26678 -16.62651,16.98795l0,11.15318c0,11.77281 5.37005,17.03959 16.4716,17.03959c11.51463,0 16.57487,-5.26678 16.57487,-15.69707l0,-0.61962l-9.39759,0zm52.40964,-27.98623l-11.56627,0l-10.99828,16.05852l-3.14974,0l0,-28.39931l-9.75904,0l0,55.76592l9.65577,0l0,-18.84682l3.40792,0l11.97935,18.84682l12.03098,0l-16.11016,-23.59725l14.50947,-19.82788zm7.22892,-11.6179l0,55.04303l9.39759,0l0,-36.50602l17.71084,36.50602l10.12048,0l0,-55.04303l-9.34596,0l0,37.28055l-17.55594,-37.28055l-10.32702,0zm56.90189,9.08778l20.86059,0l0,-9.08778l-30.92943,0l0,55.04303l31.65232,0l0,-9.08778l-21.58348,0l0,-14.45783l17.96902,0l0,-8.8296l-17.96902,0l0,-13.58003zm49.4148,45.95525l0,-46.26506l13.01205,0l0,-8.77797l-36.04131,0l0,8.77797l13.01205,0l0,46.26506l10.01721,0z"/>
  </g>
 </g>
 <defs>
  <linearGradient gradientTransform="matrix(47.581199645996094,38.03559875488281,22.1875,-81.56770324707031,13777.424331665039,50066.024475097656)" y2="393.0905" x2="-471.7534" y1="393.0905" x1="-472.7534" gradientUnits="userSpaceOnUse" id="svg_4">
   <stop stop-color="#FF7E2A" offset="0"/>
   <stop stop-color="#FFE32A" offset="1"/>
  </linearGradient>
  <linearGradient gradientTransform="matrix(47.581199645996094,19.017799377441406,22.1875,-40.78390121459961,13802.424331665039,24887.299865722656)" y2="389.7741" x2="-470.2069" y1="389.7741" x1="-471.2069" gradientUnits="userSpaceOnUse" id="svg_3">
   <stop stop-color="#FF7E2A" offset="0"/>
   <stop stop-color="#FFE32A" offset="1"/>
  </linearGradient>
 </defs>
</svg>